# xmcd
#
# Track frame offsets: 
#        183
#        16120
#        44460
#        63733
#        89815
#        102343
#        116890
#        148985
#        171768
#
# Disc length: 2622 seconds
#
# Revision: 4
# Processed by: cddbd v1.5.1PL0 Copyright (c) Steve Scherf et al.
# Submitted via: ExactAudioCopy v0.95a4
#
DISCID=860a3c09
DTITLE=John Lee Hooker - Alone  (The Second Concert)
DYEAR=1900
DGENRE=Blues
TTITLE0=Put Your Hand On Your Hip
TTITLE1=Trying To Survive
TTITLE2=I Won't Be Back No More
TTITLE3=She Left Me On My Bended Knee
TTITLE4=You Ain't Too Old To Shift Them Gears
TTITLE5=Hobo Blues
TTITLE6=I Wish You Could Change Your Ways
TTITLE7=Boogie Chillen
TTITLE8=Crawlin' King Snake
EXTD=
EXTT0=
EXTT1=
EXTT2=
EXTT3=
EXTT4=
EXTT5=
EXTT6=
EXTT7=
EXTT8=
PLAYORDER=
